{
    "asset" : {
        "generator" : "Khronos glTF Blender I/O v1.8.19",
        "version" : "2.0"
    },
    "scene" : 0,
    "scenes" : [
        {
            "name" : "Scene",
            "nodes" : [
                0,
                1,
                2,
                3,
                4
            ]
        }
    ],
    "nodes" : [
        {
            "mesh" : 0,
            "name" : "Base",
            "scale" : [
                1.4231362342834473,
                1.434718370437622,
                1.434718370437622
            ],
            "translation" : [
                -0.0073730796575546265,
                -0.08000001311302185,
                -0.006556563079357147
            ]
        },
        {
            "mesh" : 1,
            "name" : "Grass",
            "rotation" : [
                -0.010691498406231403,
                -0.771140992641449,
                -0.0653388649225235,
                -0.6332125663757324
            ],
            "scale" : [
                0.03780047968029976,
                0.22189201414585114,
                0.08562204241752625
            ],
            "translation" : [
                1.0783231258392334,
                0.12726208567619324,
                2.9911928176879883
            ]
        },
        {
            "mesh" : 2,
            "name" : "Mushrooms",
            "rotation" : [
                0.045030009001493454,
                -0.008996150456368923,
                -0.04894868656992912,
                0.997745156288147
            ],
            "scale" : [
                0.09103039652109146,
                0.09103039652109146,
                0.09103039652109146
            ],
            "translation" : [
                1.888586163520813,
                0.3224903643131256,
                -3.2186830043792725
            ]
        },
        {
            "mesh" : 3,
            "name" : "Stump",
            "translation" : [
                0,
                0.03899483382701874,
                0
            ]
        },
        {
            "mesh" : 4,
            "name" : "Wheats",
            "rotation" : [
                -0.05601602792739868,
                0.4878929555416107,
                0.019238920882344246,
                0.8708919286727905
            ],
            "scale" : [
                0.00573014235123992,
                1.182782769203186,
                -0.005080871749669313
            ],
            "translation" : [
                -1.2924582958221436,
                2.2704999446868896,
                -2.675441026687622
            ]
        }
    ],
    "materials" : [
        {
            "doubleSided" : true,
            "name" : "Material.012",
            "pbrMetallicRoughness" : {
                "baseColorTexture" : {
                    "index" : 0
                },
                "metallicFactor" : 0
            }
        },
        {
            "doubleSided" : true,
            "name" : "Material.059",
            "pbrMetallicRoughness" : {
                "baseColorTexture" : {
                    "index" : 1
                },
                "metallicFactor" : 0
            }
        },
        {
            "name" : "Material.394",
            "pbrMetallicRoughness" : {
                "baseColorFactor" : [
                    0,
                    0,
                    0,
                    1
                ],
                "metallicFactor" : 0,
                "roughnessFactor" : 0.5
            }
        },
        {
            "doubleSided" : true,
            "name" : "Material.029",
            "pbrMetallicRoughness" : {
                "baseColorTexture" : {
                    "index" : 2
                },
                "metallicFactor" : 0,
                "roughnessFactor" : 0.5
            }
        },
        {
            "name" : "Material.028",
            "pbrMetallicRoughness" : {
                "baseColorTexture" : {
                    "index" : 3
                },
                "metallicFactor" : 0
            }
        },
        {
            "doubleSided" : true,
            "name" : "Material.001",
            "pbrMetallicRoughness" : {
                "baseColorTexture" : {
                    "index" : 4
                },
                "metallicFactor" : 0,
                "roughnessFactor" : 0.6590908765792847
            }
        },
        {
            "name" : "Material.391",
            "pbrMetallicRoughness" : {
                "baseColorFactor" : [
                    0.004241864196956158,
                    0.004241864196956158,
                    0.004241864196956158,
                    1
                ],
                "metallicFactor" : 0
            }
        },
        {
            "doubleSided" : true,
            "name" : "Material.389",
            "pbrMetallicRoughness" : {
                "baseColorTexture" : {
                    "index" : 5
                },
                "metallicFactor" : 0,
                "roughnessFactor" : 0.5
            }
        },
        {
            "name" : "Material.393",
            "pbrMetallicRoughness" : {
                "baseColorFactor" : [
                    0,
                    0,
                    0,
                    1
                ],
                "metallicFactor" : 0,
                "roughnessFactor" : 0.5
            }
        }
    ],
    "meshes" : [
        {
            "name" : "Circle",
            "primitives" : [
                {
                    "attributes" : {
                        "POSITION" : 0,
                        "NORMAL" : 1,
                        "TEXCOORD_0" : 2,
                        "COLOR_0" : 3
                    },
                    "indices" : 4,
                    "material" : 0
                }
            ]
        },
        {
            "name" : "Cone.246",
            "primitives" : [
                {
                    "attributes" : {
                        "POSITION" : 5,
                        "NORMAL" : 6,
                        "TEXCOORD_0" : 7
                    },
                    "indices" : 8,
                    "material" : 1
                },
                {
                    "attributes" : {
                        "POSITION" : 9,
                        "NORMAL" : 10,
                        "TEXCOORD_0" : 11
                    },
                    "indices" : 12,
                    "material" : 2
                }
            ]
        },
        {
            "name" : "Cube.005",
            "primitives" : [
                {
                    "attributes" : {
                        "POSITION" : 13,
                        "NORMAL" : 14,
                        "TEXCOORD_0" : 15
                    },
                    "indices" : 16,
                    "material" : 3
                },
                {
                    "attributes" : {
                        "POSITION" : 17,
                        "NORMAL" : 18,
                        "TEXCOORD_0" : 19
                    },
                    "indices" : 20,
                    "material" : 4
                }
            ]
        },
        {
            "name" : "Circle.001",
            "primitives" : [
                {
                    "attributes" : {
                        "POSITION" : 21,
                        "NORMAL" : 22,
                        "TEXCOORD_0" : 23
                    },
                    "indices" : 24,
                    "material" : 5
                },
                {
                    "attributes" : {
                        "POSITION" : 25,
                        "NORMAL" : 26,
                        "TEXCOORD_0" : 27
                    },
                    "indices" : 28,
                    "material" : 6
                }
            ]
        },
        {
            "name" : "Cylinder.004",
            "primitives" : [
                {
                    "attributes" : {
                        "POSITION" : 29,
                        "NORMAL" : 30,
                        "TEXCOORD_0" : 31
                    },
                    "indices" : 32,
                    "material" : 7
                },
                {
                    "attributes" : {
                        "POSITION" : 33,
                        "NORMAL" : 34,
                        "TEXCOORD_0" : 35
                    },
                    "indices" : 36,
                    "material" : 8
                }
            ]
        }
    ],
    "textures" : [
        {
            "sampler" : 0,
            "source" : 0
        },
        {
            "sampler" : 0,
            "source" : 1
        },
        {
            "sampler" : 0,
            "source" : 2
        },
        {
            "sampler" : 0,
            "source" : 3
        },
        {
            "sampler" : 0,
            "source" : 4
        },
        {
            "sampler" : 0,
            "source" : 5
        }
    ],
    "images" : [
        {
            "bufferView" : 5,
            "mimeType" : "image/png",
            "name" : "Untitled"
        },
        {
            "bufferView" : 10,
            "mimeType" : "image/png",
            "name" : "Untitled"
        },
        {
            "bufferView" : 19,
            "mimeType" : "image/png",
            "name" : "Untitled"
        },
        {
            "bufferView" : 24,
            "mimeType" : "image/png",
            "name" : "Untitled"
        },
        {
            "bufferView" : 29,
            "mimeType" : "image/png",
            "name" : "BaseColor"
        },
        {
            "bufferView" : 38,
            "mimeType" : "image/png",
            "name" : "Untitled"
        }
    ],
    "accessors" : [
        {
            "bufferView" : 0,
            "componentType" : 5126,
            "count" : 72,
            "max" : [
                3,
                0,
                3
            ],
            "min" : [
                -3,
                -0.18837638199329376,
                -3
            ],
            "type" : "VEC3"
        },
        {
            "bufferView" : 1,
            "componentType" : 5126,
            "count" : 72,
            "type" : "VEC3"
        },
        {
            "bufferView" : 2,
            "componentType" : 5126,
            "count" : 72,
            "type" : "VEC2"
        },
        {
            "bufferView" : 3,
            "componentType" : 5123,
            "count" : 72,
            "normalized" : true,
            "type" : "VEC4"
        },
        {
            "bufferView" : 4,
            "componentType" : 5123,
            "count" : 132,
            "type" : "SCALAR"
        },
        {
            "bufferView" : 6,
            "componentType" : 5126,
            "count" : 4272,
            "max" : [
                180.21278381347656,
                2.717944860458374,
                35.88310241699219
            ],
            "min" : [
                -5.4011735916137695,
                -4.547696590423584,
                -45.92586135864258
            ],
            "type" : "VEC3"
        },
        {
            "bufferView" : 7,
            "componentType" : 5126,
            "count" : 4272,
            "type" : "VEC3"
        },
        {
            "bufferView" : 8,
            "componentType" : 5126,
            "count" : 4272,
            "type" : "VEC2"
        },
        {
            "bufferView" : 9,
            "componentType" : 5123,
            "count" : 4272,
            "type" : "SCALAR"
        },
        {
            "bufferView" : 11,
            "componentType" : 5126,
            "count" : 4272,
            "max" : [
                180.3628692626953,
                2.8918917179107666,
                35.978763580322266
            ],
            "min" : [
                -5.5785980224609375,
                -4.657266616821289,
                -46.042999267578125
            ],
            "type" : "VEC3"
        },
        {
            "bufferView" : 12,
            "componentType" : 5126,
            "count" : 4272,
            "type" : "VEC3"
        },
        {
            "bufferView" : 13,
            "componentType" : 5126,
            "count" : 4272,
            "type" : "VEC2"
        },
        {
            "bufferView" : 14,
            "componentType" : 5123,
            "count" : 4272,
            "type" : "SCALAR"
        },
        {
            "bufferView" : 15,
            "componentType" : 5126,
            "count" : 23670,
            "max" : [
                6.159140586853027,
                3.932080030441284,
                71.11837005615234
            ],
            "min" : [
                -56.165889739990234,
                -6.134713649749756,
                -2.334048271179199
            ],
            "type" : "VEC3"
        },
        {
            "bufferView" : 16,
            "componentType" : 5126,
            "count" : 23670,
            "type" : "VEC3"
        },
        {
            "bufferView" : 17,
            "componentType" : 5126,
            "count" : 23670,
            "type" : "VEC2"
        },
        {
            "bufferView" : 18,
            "componentType" : 5123,
            "count" : 35520,
            "type" : "SCALAR"
        },
        {
            "bufferView" : 20,
            "componentType" : 5126,
            "count" : 30080,
            "max" : [
                6.443907737731934,
                4.6101508140563965,
                71.4485855102539
            ],
            "min" : [
                -56.465084075927734,
                -6.4322943687438965,
                -2.6233901977539062
            ],
            "type" : "VEC3"
        },
        {
            "bufferView" : 21,
            "componentType" : 5126,
            "count" : 30080,
            "type" : "VEC3"
        },
        {
            "bufferView" : 22,
            "componentType" : 5126,
            "count" : 30080,
            "type" : "VEC2"
        },
        {
            "bufferView" : 23,
            "componentType" : 5123,
            "count" : 45120,
            "type" : "SCALAR"
        },
        {
            "bufferView" : 25,
            "componentType" : 5126,
            "count" : 528,
            "max" : [
                1.981811761856079,
                2.6334388256073,
                2.341773271560669
            ],
            "min" : [
                -1.9275866746902466,
                -0.2344706654548645,
                -1.6171842813491821
            ],
            "type" : "VEC3"
        },
        {
            "bufferView" : 26,
            "componentType" : 5126,
            "count" : 528,
            "type" : "VEC3"
        },
        {
            "bufferView" : 27,
            "componentType" : 5126,
            "count" : 528,
            "type" : "VEC2"
        },
        {
            "bufferView" : 28,
            "componentType" : 5123,
            "count" : 792,
            "type" : "SCALAR"
        },
        {
            "bufferView" : 30,
            "componentType" : 5126,
            "count" : 528,
            "max" : [
                2.039628505706787,
                2.6991684436798096,
                2.4260361194610596
            ],
            "min" : [
                -1.953186273574829,
                -0.275847852230072,
                -1.7108827829360962
            ],
            "type" : "VEC3"
        },
        {
            "bufferView" : 31,
            "componentType" : 5126,
            "count" : 528,
            "type" : "VEC3"
        },
        {
            "bufferView" : 32,
            "componentType" : 5126,
            "count" : 528,
            "type" : "VEC2"
        },
        {
            "bufferView" : 33,
            "componentType" : 5123,
            "count" : 792,
            "type" : "SCALAR"
        },
        {
            "bufferView" : 34,
            "componentType" : 5126,
            "count" : 1152,
            "max" : [
                108.74536895751953,
                -0.5861977338790894,
                -19.441383361816406
            ],
            "min" : [
                -736.198974609375,
                -2.7022149562835693,
                -911.0006713867188
            ],
            "type" : "VEC3"
        },
        {
            "bufferView" : 35,
            "componentType" : 5126,
            "count" : 1152,
            "type" : "VEC3"
        },
        {
            "bufferView" : 36,
            "componentType" : 5126,
            "count" : 1152,
            "type" : "VEC2"
        },
        {
            "bufferView" : 37,
            "componentType" : 5123,
            "count" : 1674,
            "type" : "SCALAR"
        },
        {
            "bufferView" : 39,
            "componentType" : 5126,
            "count" : 684,
            "max" : [
                108.74536895751953,
                -0.5861977338790894,
                -19.32671356201172
            ],
            "min" : [
                -736.198974609375,
                -2.7072629928588867,
                -910.967529296875
            ],
            "type" : "VEC3"
        },
        {
            "bufferView" : 40,
            "componentType" : 5126,
            "count" : 684,
            "type" : "VEC3"
        },
        {
            "bufferView" : 41,
            "componentType" : 5126,
            "count" : 684,
            "type" : "VEC2"
        },
        {
            "bufferView" : 42,
            "componentType" : 5123,
            "count" : 972,
            "type" : "SCALAR"
        }
    ],
    "bufferViews" : [
        {
            "buffer" : 0,
            "byteLength" : 864,
            "byteOffset" : 0
        },
        {
            "buffer" : 0,
            "byteLength" : 864,
            "byteOffset" : 864
        },
        {
            "buffer" : 0,
            "byteLength" : 576,
            "byteOffset" : 1728
        },
        {
            "buffer" : 0,
            "byteLength" : 576,
            "byteOffset" : 2304
        },
        {
            "buffer" : 0,
            "byteLength" : 264,
            "byteOffset" : 2880
        },
        {
            "buffer" : 0,
            "byteLength" : 120276,
            "byteOffset" : 3144
        },
        {
            "buffer" : 0,
            "byteLength" : 51264,
            "byteOffset" : 123420
        },
        {
            "buffer" : 0,
            "byteLength" : 51264,
            "byteOffset" : 174684
        },
        {
            "buffer" : 0,
            "byteLength" : 34176,
            "byteOffset" : 225948
        },
        {
            "buffer" : 0,
            "byteLength" : 8544,
            "byteOffset" : 260124
        },
        {
            "buffer" : 0,
            "byteLength" : 96041,
            "byteOffset" : 268668
        },
        {
            "buffer" : 0,
            "byteLength" : 51264,
            "byteOffset" : 364712
        },
        {
            "buffer" : 0,
            "byteLength" : 51264,
            "byteOffset" : 415976
        },
        {
            "buffer" : 0,
            "byteLength" : 34176,
            "byteOffset" : 467240
        },
        {
            "buffer" : 0,
            "byteLength" : 8544,
            "byteOffset" : 501416
        },
        {
            "buffer" : 0,
            "byteLength" : 284040,
            "byteOffset" : 509960
        },
        {
            "buffer" : 0,
            "byteLength" : 284040,
            "byteOffset" : 794000
        },
        {
            "buffer" : 0,
            "byteLength" : 189360,
            "byteOffset" : 1078040
        },
        {
            "buffer" : 0,
            "byteLength" : 71040,
            "byteOffset" : 1267400
        },
        {
            "buffer" : 0,
            "byteLength" : 68847,
            "byteOffset" : 1338440
        },
        {
            "buffer" : 0,
            "byteLength" : 360960,
            "byteOffset" : 1407288
        },
        {
            "buffer" : 0,
            "byteLength" : 360960,
            "byteOffset" : 1768248
        },
        {
            "buffer" : 0,
            "byteLength" : 240640,
            "byteOffset" : 2129208
        },
        {
            "buffer" : 0,
            "byteLength" : 90240,
            "byteOffset" : 2369848
        },
        {
            "buffer" : 0,
            "byteLength" : 52738,
            "byteOffset" : 2460088
        },
        {
            "buffer" : 0,
            "byteLength" : 6336,
            "byteOffset" : 2512828
        },
        {
            "buffer" : 0,
            "byteLength" : 6336,
            "byteOffset" : 2519164
        },
        {
            "buffer" : 0,
            "byteLength" : 4224,
            "byteOffset" : 2525500
        },
        {
            "buffer" : 0,
            "byteLength" : 1584,
            "byteOffset" : 2529724
        },
        {
            "buffer" : 0,
            "byteLength" : 363356,
            "byteOffset" : 2531308
        },
        {
            "buffer" : 0,
            "byteLength" : 6336,
            "byteOffset" : 2894664
        },
        {
            "buffer" : 0,
            "byteLength" : 6336,
            "byteOffset" : 2901000
        },
        {
            "buffer" : 0,
            "byteLength" : 4224,
            "byteOffset" : 2907336
        },
        {
            "buffer" : 0,
            "byteLength" : 1584,
            "byteOffset" : 2911560
        },
        {
            "buffer" : 0,
            "byteLength" : 13824,
            "byteOffset" : 2913144
        },
        {
            "buffer" : 0,
            "byteLength" : 13824,
            "byteOffset" : 2926968
        },
        {
            "buffer" : 0,
            "byteLength" : 9216,
            "byteOffset" : 2940792
        },
        {
            "buffer" : 0,
            "byteLength" : 3348,
            "byteOffset" : 2950008
        },
        {
            "buffer" : 0,
            "byteLength" : 70140,
            "byteOffset" : 2953356
        },
        {
            "buffer" : 0,
            "byteLength" : 8208,
            "byteOffset" : 3023496
        },
        {
            "buffer" : 0,
            "byteLength" : 8208,
            "byteOffset" : 3031704
        },
        {
            "buffer" : 0,
            "byteLength" : 5472,
            "byteOffset" : 3039912
        },
        {
            "buffer" : 0,
            "byteLength" : 1944,
            "byteOffset" : 3045384
        }
    ],
    "samplers" : [
        {
            "magFilter" : 9729,
            "minFilter" : 9987
        }
    ],
    "buffers" : [
        {
            "byteLength" : 3047328,
            "uri" : "data:application/octet-stream;base64,"
        }
    ]
}
